# xmcd CD database file
#
# Track frame offsets:
#	150
#	8052
#	28459
#	49901
#	77194
#	96126
#	153688
#	177063
#	198593
#	217588
#	226629
#	243623
#	261028
#	274988
#
# Disc length: 4003 seconds
#
# Revision: 3
# Processed by: cddbd v1.5.2PL0 Copyright (c) Steve Scherf et al.
# Submitted via: CDex 1.70beta2
#
DISCID=ba0fa10e
DTITLE=Schiller - Sehnsucht Disc 2
DYEAR=2008
DGENRE=New Age
TTITLE0=Der Kuss (Mit Anna Maria Mühe)
TTITLE1=Wunschtraum
TTITLE2=Tired (Mit Jaël)
TTITLE3=Lichtung
TTITLE4=Breathe (Mit September)
TTITLE5=Zenit (Ausschnitt) (Mit Klaus Schulz)
TTITLE6=In The Dark (Mit Jette Von Roth)
TTITLE7=Tagtraum
TTITLE8=Destiny (Mit Despina Vandi)
TTITLE9=White
TTITLE10=Lonely (Mit Damae)
TTITLE11=Sehnsucht (Reprise)
TTITLE12=Vor Der Zeit (Mit Ben Becker)
TTITLE13=Forever (Mit Kim Sanders)
EXTD=YEAR: 2008
EXTT0=
EXTT1=
EXTT2=
EXTT3=
EXTT4=
EXTT5=
EXTT6=
EXTT7=
EXTT8=
EXTT9=
EXTT10=
EXTT11=
EXTT12=
EXTT13=
PLAYORDER=
